<svg xmlns="http://www.w3.org/2000/svg" width="77.4mm" height="15.56mm" viewBox="0 0 219.41 44.12"><title>logo-disrupt-campus</title><g id="a87d5782-4977-48cf-9411-29d7347cd413" data-name="Mode Isolation"><path d="M44.32,19a8.19,8.19,0,0,0,2.11.27A8.47,8.47,0,1,0,38,10.49a6.24,6.24,0,0,0-2,11.92v-.74a5.59,5.59,0,1,1,4.83.13v.41A2.4,2.4,0,0,1,42,21.87,6.26,6.26,0,0,0,44.32,19ZM41,11a6.31,6.31,0,0,0-2.38-.52,7.8,7.8,0,1,1,7.79,8.13,7.5,7.5,0,0,1-1.9-.24,6,6,0,0,0,.23-1.65,6.81,6.81,0,0,0,0-.78A6.28,6.28,0,0,0,41,11Z" transform="translate(-3.37 -2.33)" style="fill:#575656"/><polygon points="167.74 37.83 171.37 37.83 169.55 33.55 167.74 37.83" style="fill:none"/><path d="M122.14,37.66a2.08,2.08,0,0,0-2.15,1.9h4.18A1.88,1.88,0,0,0,122.14,37.66Z" transform="translate(-3.37 -2.33)" style="fill:none"/><path d="M139.19,37.76a2.38,2.38,0,1,0,2.23,2.37A2.2,2.2,0,0,0,139.19,37.76Z" transform="translate(-3.37 -2.33)" style="fill:none"/><path d="M186.87,37.72a2.39,2.39,0,1,0,2.23,2.37A2.21,2.21,0,0,0,186.87,37.72Z" transform="translate(-3.37 -2.33)" style="fill:none"/><path d="M148.4,37.72a2.39,2.39,0,1,0,2.23,2.37A2.22,2.22,0,0,0,148.4,37.72Z" transform="translate(-3.37 -2.33)" style="fill:none"/><path d="M159.34,22.12c0,.81.63,1.34,1.65,1.34a2.33,2.33,0,0,0,2.45-1.59v-.95h-2.37C159.91,20.92,159.34,21.28,159.34,22.12Z" transform="translate(-3.37 -2.33)" style="fill:none"/><path d="M160.7,37.66a2.08,2.08,0,0,0-2.15,1.9h4.19A1.89,1.89,0,0,0,160.7,37.66Z" transform="translate(-3.37 -2.33)" style="fill:none"/><path d="M123.82,23.08a2.64,2.64,0,0,0,2.61-2.92,2.63,2.63,0,1,0-5.24,0A2.65,2.65,0,0,0,123.82,23.08Z" transform="translate(-3.37 -2.33)" style="fill:none"/><path d="M54.24,10.79a7.81,7.81,0,0,1-7.81,7.81,7.5,7.5,0,0,1-1.9-.24,6.38,6.38,0,0,0,.23-1.65,6.81,6.81,0,0,0,0-.78A5.42,5.42,0,1,0,41,10.79c0,.07,0,.13,0,.2a6.16,6.16,0,0,0-2.38-.52,7.8,7.8,0,0,1,15.6.32Z" transform="translate(-3.37 -2.33)" style="fill:#fff"/><path d="M194.78,17.26a2.65,2.65,0,0,0-2.63,2.9,2.64,2.64,0,1,0,5.24,0A2.65,2.65,0,0,0,194.78,17.26Z" transform="translate(-3.37 -2.33)" style="fill:none"/><path d="M195.24,37.66a2.08,2.08,0,0,0-2.15,1.9h4.19A1.89,1.89,0,0,0,195.24,37.66Z" transform="translate(-3.37 -2.33)" style="fill:none"/><path d="M77.08,18.63A4.06,4.06,0,0,0,73,14.35H70.29v8.52H73.1A4,4,0,0,0,77.08,18.63Z" transform="translate(-3.37 -2.33)" style="fill:none"/><path d="M34.48,42.39c0-.18-.09-.39-.14-.64a8.66,8.66,0,0,0-.9-2.82l-.06,0L27.9,31l-3.63-4.63-8,11.81,4.89,6.57h14a6.35,6.35,0,0,1-.59-1.91C34.54,42.68,34.51,42.52,34.48,42.39Z" transform="translate(-3.37 -2.33)" style="fill:#498030"/><polygon points="10.28 32.36 2.78 42.43 9.65 42.43 17.79 42.43 12.9 35.87 10.28 32.36" style="fill:#a4c616"/><path d="M15.62,35.12a0,0,0,0,0,0,0,.49.49,0,0,0,.84,0L23.41,23.4l1.13,1.53.77-5.72-4.64,3.43,1.89.25-7.3,8.23-1.41-2.4a.51.51,0,0,0-.41-.25.48.48,0,0,0-.42.22L3.82,43.35l-.36.51a.5.5,0,0,0,.12.69.52.52,0,0,0,.29.09.48.48,0,0,0,.4-.21l.1-.11L13.65,32.1Z" transform="translate(-3.37 -2.33)" style="fill:#f49819"/><path d="M74.09,39.78a2.38,2.38,0,0,1-2.55,2.61A2.41,2.41,0,0,1,69,39.78V34.14H67.33v5.64c0,2.52,1.59,4.06,4.2,4.06s4.18-1.54,4.18-4.06V34.14H74.09Z" transform="translate(-3.37 -2.33)" style="fill:#575657"/><path d="M82.09,36.4a2.76,2.76,0,0,0-2.7,1.46V36.45H77.8v7.33h1.59v-3.9a2.06,2.06,0,0,1,2.08-2,1.63,1.63,0,0,1,1.76,1.78v4.12h1.58V39.22A2.56,2.56,0,0,0,82.09,36.4Z" transform="translate(-3.37 -2.33)" style="fill:#575657"/><rect x="83.42" y="34.13" width="1.57" height="7.32" style="fill:#575657"/><path d="M87.58,33.39a1,1,0,1,0,.92,1A.92.92,0,0,0,87.58,33.39Z" transform="translate(-3.37 -2.33)" style="fill:#575657"/><polygon points="89.73 39.89 87.69 34.13 86.04 34.13 88.88 41.45 90.51 41.45 93.32 34.13 91.74 34.13 89.73 39.89" style="fill:#575657"/><path d="M97.7,42.08a.85.85,0,0,0-.87.9.87.87,0,1,0,1.73,0A.85.85,0,0,0,97.7,42.08Z" transform="translate(-3.37 -2.33)" style="fill:#575657"/><path d="M108.11,35.54a4.25,4.25,0,0,1,2.78,1.1l.92-1.19a5.77,5.77,0,0,0-3.7-1.35,4.88,4.88,0,1,0-.1,9.74,6.53,6.53,0,0,0,3.74-1.25V39h-1.41v2.68a4.44,4.44,0,0,1-2.22.67,3.43,3.43,0,1,1,0-6.85Z" transform="translate(-3.37 -2.33)" style="fill:#575657"/><path d="M115.4,37.91V36.45h-1.58v7.33h1.58V40a2.22,2.22,0,0,1,2.54-2V36.4A2.67,2.67,0,0,0,115.4,37.91Z" transform="translate(-3.37 -2.33)" style="fill:#575657"/><path d="M122.12,36.4a3.72,3.72,0,1,0,0,7.43,4,4,0,0,0,3-1.24l-.84-.89a2.85,2.85,0,0,1-2.06.85A2.24,2.24,0,0,1,120,40.72h5.54C125.74,38.08,124.7,36.4,122.12,36.4ZM120,39.56a2.08,2.08,0,0,1,2.15-1.9,1.88,1.88,0,0,1,2,1.9Z" transform="translate(-3.37 -2.33)" style="fill:#575657"/><path d="M131.35,36.4a2.76,2.76,0,0,0-2.7,1.46V36.45h-1.59v7.33h1.59v-3.9a2.06,2.06,0,0,1,2.08-2,1.63,1.63,0,0,1,1.76,1.78v4.12h1.58V39.22A2.56,2.56,0,0,0,131.35,36.4Z" transform="translate(-3.37 -2.33)" style="fill:#575657"/><path d="M139.19,36.4A3.72,3.72,0,1,0,143,40.11,3.58,3.58,0,0,0,139.19,36.4Zm0,6.11a2.38,2.38,0,1,1,2.23-2.38A2.2,2.2,0,0,1,139.19,42.51Z" transform="translate(-3.37 -2.33)" style="fill:#575657"/><path d="M148.73,36.4a2.85,2.85,0,0,0-2.56,1.32V33.56h-1.58V43.78h1.58V42.51a2.89,2.89,0,0,0,2.59,1.32,3.39,3.39,0,0,0,3.47-3.69A3.44,3.44,0,0,0,148.73,36.4Zm-.33,6.08a2.39,2.39,0,1,1,2.23-2.39A2.22,2.22,0,0,1,148.4,42.48Z" transform="translate(-3.37 -2.33)" style="fill:#575657"/><rect x="150.44" y="31.23" width="1.58" height="10.22" style="fill:#575657"/><path d="M160.68,36.4a3.72,3.72,0,1,0,0,7.43,4,4,0,0,0,3-1.24l-.84-.89a2.82,2.82,0,0,1-2.06.85,2.23,2.23,0,0,1-2.27-1.83h5.53C164.31,38.08,163.26,36.4,160.68,36.4Zm-2.13,3.16a2.08,2.08,0,0,1,2.15-1.9,1.89,1.89,0,0,1,2,1.9Z" transform="translate(-3.37 -2.33)" style="fill:#575657"/><path d="M172.14,34.14l-4.26,9.64h1.7l.92-2.18h4.86l.92,2.18H178l-4.21-9.64Zm-1,6,1.81-4.28,1.82,4.28Z" transform="translate(-3.37 -2.33)" style="fill:#575657"/><rect x="175.76" y="31.23" width="1.58" height="10.22" style="fill:#575657"/><path d="M187.2,36.4a2.85,2.85,0,0,0-2.56,1.32V36.45h-1.58v10h1.58V42.51a2.89,2.89,0,0,0,2.59,1.32,3.39,3.39,0,0,0,3.47-3.69A3.44,3.44,0,0,0,187.2,36.4Zm-.33,6.08a2.39,2.39,0,1,1,2.23-2.39A2.21,2.21,0,0,1,186.87,42.48Z" transform="translate(-3.37 -2.33)" style="fill:#575657"/><path d="M195.23,36.4a3.72,3.72,0,1,0,0,7.43,4,4,0,0,0,3-1.24l-.84-.89a2.86,2.86,0,0,1-2.07.85,2.23,2.23,0,0,1-2.27-1.83h5.54C198.85,38.08,197.8,36.4,195.23,36.4Zm-2.14,3.16a2.08,2.08,0,0,1,2.15-1.9,1.89,1.89,0,0,1,2,1.9Z" transform="translate(-3.37 -2.33)" style="fill:#575657"/><path d="M201.16,38.38c0-.52.46-.73,1.08-.73a4.31,4.31,0,0,1,2.1.65l.58-1.17a4.62,4.62,0,0,0-2.56-.75c-1.41,0-2.7.64-2.7,2.12,0,2.65,3.84,1.81,3.84,3.31,0,.55-.52.78-1.2.78a4,4,0,0,1-2.45-.91l-.56,1.13a4.53,4.53,0,0,0,3,1c1.47,0,2.8-.67,2.8-2.17C205.06,39,201.16,39.73,201.16,38.38Z" transform="translate(-3.37 -2.33)" style="fill:#575657"/><path d="M80.24,18.61c0-4.06-3-6.87-7.22-6.87H67.19V25.48H72.9C77.24,25.48,80.24,22.65,80.24,18.61Zm-9.95-4.26H73a4.06,4.06,0,0,1,4.12,4.28,4,4,0,0,1-4,4.24H70.29Z" transform="translate(-3.37 -2.33)" style="fill:#e6312c"/><path d="M83.54,10.23a1.59,1.59,0,0,0-1.63,1.69,1.63,1.63,0,1,0,3.25,0A1.59,1.59,0,0,0,83.54,10.23Z" transform="translate(-3.37 -2.33)" style="fill:#e6312c"/><rect x="78.66" y="12.59" width="3.02" height="10.56" style="fill:#e6312c"/><path d="M91.31,23.4a6.32,6.32,0,0,1-3.67-1.32l-1,2a7.35,7.35,0,0,0,4.57,1.47c2.39,0,4.3-1.13,4.3-3.29,0-3.73-5.56-2.93-5.56-4.52,0-.54.51-.78,1.22-.78a7.13,7.13,0,0,1,3.22,1l1-2.06a7.85,7.85,0,0,0-4.12-1.18c-2.3,0-4.16,1.12-4.16,3.3,0,3.71,5.47,2.81,5.47,4.49C92.64,23.14,92.07,23.4,91.31,23.4Z" transform="translate(-3.37 -2.33)" style="fill:#e6312c"/><path d="M103.87,17.65V14.8a3.87,3.87,0,0,0-3.5,2v-1.9h-3V25.48h3V20.39C100.37,18.61,101.71,17.45,103.87,17.65Z" transform="translate(-3.37 -2.33)" style="fill:#e6312c"/><path d="M115.35,25.48V14.92h-3v5.22A2.41,2.41,0,0,1,110,22.83a1.91,1.91,0,0,1-2-2.14V14.92h-3v6.63c0,2.49,1.48,4,3.81,4a3.72,3.72,0,0,0,3.53-2v1.87Z" transform="translate(-3.37 -2.33)" style="fill:#e6312c"/><path d="M121.19,24a4,4,0,0,0,3.4,1.64c3,0,4.9-2.13,4.9-5.33s-2-5.44-5-5.44a3.93,3.93,0,0,0-3.34,1.65V14.92h-3V29.28h3Zm2.63-6.69a2.65,2.65,0,0,1,2.61,2.9,2.64,2.64,0,1,1-5.24,0A2.65,2.65,0,0,1,123.82,17.26Z" transform="translate(-3.37 -2.33)" style="fill:#e6312c"/><path d="M137.21,22.67a3.43,3.43,0,0,1-1.42.39c-.64,0-1-.33-1-1.21V17.49h2.87v-2.1h-2.87v-2.9h-3v2.9H130.3v2.08h1.47v4.89a3,3,0,0,0,3.32,3.25,5.59,5.59,0,0,0,2.74-.72Z" transform="translate(-3.37 -2.33)" style="fill:#e6312c"/><path d="M150.43,22.79a4.23,4.23,0,0,1,0-8.46A5,5,0,0,1,154,16.12l1.81-2.2a7.86,7.86,0,0,0-5.42-2.28,7,7,0,1,0-.12,14,8,8,0,0,0,5.56-2.45l-1.83-2A5.29,5.29,0,0,1,150.43,22.79Z" transform="translate(-3.37 -2.33)" style="fill:#e6312c"/><path d="M161.93,14.8A9.86,9.86,0,0,0,157.16,16l.94,2.08a6.67,6.67,0,0,1,3.14-.92c1.46,0,2.2.64,2.2,1.76v.2h-2.9c-2.59,0-4,1.2-4,3.18s1.37,3.29,3.63,3.29a4,4,0,0,0,3.31-1.37v1.24h3V18.59C166.39,16.21,164.76,14.8,161.93,14.8Zm1.51,7.07A2.33,2.33,0,0,1,161,23.46c-1,0-1.65-.53-1.65-1.34s.57-1.2,1.73-1.2h2.37Z" transform="translate(-3.37 -2.33)" style="fill:#e6312c"/><path d="M183.61,19.73v5.75h3V18.84c0-2.47-1.47-4-3.81-4A3.87,3.87,0,0,0,179,17.24a3.5,3.5,0,0,0-3.57-2.44,3.91,3.91,0,0,0-3.57,1.94V14.92h-3V25.48h3V20.26a2.42,2.42,0,0,1,2.36-2.69,1.94,1.94,0,0,1,2,2.16v5.75h3V20.26a2.41,2.41,0,0,1,2.33-2.69A1.94,1.94,0,0,1,183.61,19.73Z" transform="translate(-3.37 -2.33)" style="fill:#e6312c"/><path d="M195.49,14.82a3.92,3.92,0,0,0-3.34,1.65V14.92h-3V29.28h3V24a4,4,0,0,0,3.4,1.64c3,0,4.9-2.13,4.9-5.33S198.45,14.82,195.49,14.82Zm-.71,8.26a2.65,2.65,0,0,1-2.63-2.92,2.63,2.63,0,1,1,5.24,0A2.64,2.64,0,0,1,194.78,23.08Z" transform="translate(-3.37 -2.33)" style="fill:#e6312c"/><path d="M209.28,20.14A2.41,2.41,0,0,1,207,22.83a1.91,1.91,0,0,1-2-2.14V14.92h-3v6.63c0,2.49,1.48,4,3.81,4a3.72,3.72,0,0,0,3.53-2v1.87h3V14.92h-3Z" transform="translate(-3.37 -2.33)" style="fill:#e6312c"/><path d="M217.23,17.78c0-.54.51-.78,1.22-.78a7.06,7.06,0,0,1,3.21,1L222.71,16a7.85,7.85,0,0,0-4.13-1.18c-2.29,0-4.16,1.12-4.16,3.3,0,3.71,5.48,2.81,5.48,4.49,0,.57-.57.83-1.34.83a6.3,6.3,0,0,1-3.66-1.32l-1,2a7.4,7.4,0,0,0,4.58,1.47c2.39,0,4.29-1.13,4.29-3.29C222.8,18.57,217.23,19.37,217.23,17.78Z" transform="translate(-3.37 -2.33)" style="fill:#e6312c"/><path d="M46.43,16.22A5.43,5.43,0,1,0,41,10.79c0,.07,0,.13,0,.2a6.28,6.28,0,0,1,3.69,4.94A5.18,5.18,0,0,0,46.43,16.22Z" transform="translate(-3.37 -2.33)" style="fill:#727272"/><path d="M34.57,16.71a3.95,3.95,0,1,1,6.22,3.21V21.8A5.58,5.58,0,1,0,36,21.67v-2A3.9,3.9,0,0,1,34.57,16.71Z" transform="translate(-3.37 -2.33)" style="fill:#fff"/><path d="M42.46,16.71a3.95,3.95,0,0,0-7.89,0,3.9,3.9,0,0,0,1.38,3V18.32a2.34,2.34,0,0,1,2.35-2.1h.06a2.49,2.49,0,0,1,1.91.7,1.93,1.93,0,0,1,.54,1.42c0,.12,0,.71,0,1.58A3.91,3.91,0,0,0,42.46,16.71Z" transform="translate(-3.37 -2.33)" style="fill:#e43012"/><path d="M39.83,29.87c0-.45,0-11,0-11.57a1,1,0,0,0-.27-.71,1.59,1.59,0,0,0-1.21-.4H38.3a1.39,1.39,0,0,0-1.39,1.21L37,34.27l-.9-1.37c-1-1.47-2.48-3.74-2.67-4a1.8,1.8,0,0,0-1.3-.58,2,2,0,0,0-1.09.35,1.79,1.79,0,0,0-.7,2.11l4.68,6.72a6.7,6.7,0,0,1,1.07,3c0,.21.08.39.11.54a2.88,2.88,0,0,1,.09.46c.2,1.1.44,2,1.49,2.1s4.24.27,7.24.27a18.28,18.28,0,0,0,4.42-.25s.6-.24,1.49-3.26c.43-1.44.73-2.86.78-3.13V29c0-2.09-.83-2.39-1.45-2.44h-.2a1.22,1.22,0,0,0-1.3.81v4.44l-1.07.09v-.53s0-4,0-4.88a1.62,1.62,0,0,0-1.41-1.76h-.12a1.41,1.41,0,0,0-1.24,1v5.5l-1.06.12v-.55c0-2,0-5.84,0-6.27a1.61,1.61,0,0,0-1.49-1.61l-.35,0a1.24,1.24,0,0,0-1.16.62v7l-1.07-.1Z" transform="translate(-3.37 -2.33)" style="fill:#fff"/><path d="M40.79,21.8V19.92c0-.87,0-1.46,0-1.58a1.93,1.93,0,0,0-.54-1.42,2.49,2.49,0,0,0-1.91-.7h-.06a2.34,2.34,0,0,0-2.35,2.1v4.09L36,31c-.73-1.09-1.65-2.46-1.82-2.67a2.57,2.57,0,0,0-1-.7,2.66,2.66,0,0,0-1.1-.25,3,3,0,0,0-1.61.5,2.77,2.77,0,0,0-1.07,3.33l0,.06,4.82,6.92.06,0a8.07,8.07,0,0,1,.78,2.47c.05.22.09.41.13.56s.05.26.08.41c.16.92.47,2.65,2.31,2.89,1.1.15,4.54.28,7.37.28a20.68,20.68,0,0,0,4.75-.3c.49-.18,1.17-.78,2.09-3.9.31-1,.54-2,.68-2.63.09-.38.13-.61.14-.64V29c0-2.67-1.28-3.33-2.35-3.41h-.28a2.42,2.42,0,0,0-1.44.42,2.47,2.47,0,0,0-2.25-2.25h-.21a2.08,2.08,0,0,0-1.34.47,2.56,2.56,0,0,0-2.29-2.27,2.89,2.89,0,0,0-.5,0h0a2.4,2.4,0,0,0-1.24.34Zm.11,1.66a1.24,1.24,0,0,1,1.16-.62l.35,0a1.61,1.61,0,0,1,1.49,1.61c0,.43,0,4.29,0,6.27v.55L45,31.18v-5.5a1.41,1.41,0,0,1,1.24-1h.12a1.62,1.62,0,0,1,1.41,1.76c0,.83,0,4.84,0,4.88v.53l1.07-.09V27.33a1.22,1.22,0,0,1,1.3-.81h.2c.62,0,1.45.35,1.45,2.44v8.26c-.05.27-.35,1.69-.78,3.13-.89,3-1.46,3.25-1.49,3.26a18.28,18.28,0,0,1-4.42.25c-3,0-6.3-.15-7.24-.27s-1.29-1-1.49-2.1a2.88,2.88,0,0,0-.09-.46c0-.15-.07-.33-.11-.54a6.7,6.7,0,0,0-1.07-3l-4.68-6.72a1.79,1.79,0,0,1,.7-2.11,2,2,0,0,1,1.09-.35,1.8,1.8,0,0,1,1.3.58c.19.23,1.7,2.5,2.67,4l.9,1.37L36.91,18.4a1.39,1.39,0,0,1,1.39-1.21h.05a1.59,1.59,0,0,1,1.21.4,1,1,0,0,1,.27.71c0,.56,0,11.12,0,11.57v.44l1.07.1Z" transform="translate(-3.37 -2.33)" style="fill:#575657"/></g></svg>